<?xml version="1.0" encoding="UTF-8"?>
<svg version="1.1" xmlns="http://www.w3.org/2000/svg" width="2103" height="2103">
<path d="M0 0 C693.99 0 1387.98 0 2103 0 C2103 693.99 2103 1387.98 2103 2103 C1409.01 2103 715.02 2103 0 2103 C0 1409.01 0 715.02 0 0 Z " fill="#FEFEFE" transform="translate(0,0)"/>
<path d="M0 0 C1.19278564 0.24459961 1.19278564 0.24459961 2.40966797 0.49414062 C43.765466 9.0569827 81.63610513 31.22673402 114.83984375 56.6015625 C116.84963625 58.12691799 118.90066352 59.60044235 121 61 C123.50047392 55.46591807 125.40110272 49.86277759 127.1875 44.0625 C127.46013672 43.18787109 127.73277344 42.31324219 128.01367188 41.41210938 C128.67909689 39.27574484 129.34112354 37.13839138 130 35 C132.53938778 38.06477051 133.88587646 40.95063494 135.20483398 44.69555664 C135.61213242 45.84097427 136.01943085 46.98639191 136.43907166 48.16651917 C136.87038895 49.4019194 137.30170624 50.63731964 137.74609375 51.91015625 C138.20242228 53.20110356 138.65938803 54.49182578 139.11695862 55.78233337 C140.32002896 59.18061627 141.51475052 62.58177534 142.7076416 65.98364258 C143.91037486 69.40939058 145.12037367 72.83256814 146.33007812 76.25585938 C147.69651334 80.12333051 149.06170562 83.99121197 150.42198181 87.8608551 C150.8324324 89.02833786 151.242883 90.19582062 151.66577148 91.39868164 C152.05586395 92.50849396 152.44595642 93.61830627 152.84786987 94.76174927 C154.29094718 98.81775477 155.78530477 102.85392144 157.29652405 106.88499451 C158 109 158 109 158 111 C149.39254397 109.40870561 141.05791322 107.5251338 132.66015625 105.03515625 C128.65032865 103.90110682 124.62276783 102.93283224 120.5625 102 C107.92561319 99.0879537 95.45392405 95.6076082 83 92 C85.68228388 90.21181075 88.17799233 88.93709016 91.10546875 87.6171875 C92.08837891 87.17246094 93.07128906 86.72773437 94.08398438 86.26953125 C95.10814453 85.80933594 96.13230469 85.34914063 97.1875 84.875 C98.22326172 84.40707031 99.25902344 83.93914062 100.32617188 83.45703125 C102.88305367 82.30231044 105.44102229 81.15006674 108 80 C108 79.34 108 78.68 108 78 C94.58586259 71.93162852 81.22920863 65.98137536 67.0625 61.875 C66.13695312 61.60486084 65.21140625 61.33472168 64.2578125 61.05639648 C52.53537012 57.81990078 41.07515734 56.66992749 28.9375 56.75 C27.76123047 56.74226562 26.58496094 56.73453125 25.37304688 56.7265625 C14.76702261 56.75001418 4.63950118 57.97727411 -5.375 61.5625 C-6.08833496 61.81644531 -6.80166992 62.07039062 -7.53662109 62.33203125 C-15.07299479 65.1717757 -21.51465261 69.27948955 -28 74 C-29.07701172 74.77150391 -29.07701172 74.77150391 -30.17578125 75.55859375 C-40.17652873 83.3862298 -46.87037137 96.6351018 -49 109 C-49.29282467 112.60882842 -49.33423299 116.19302597 -49.3125 119.8125 C-49.30686035 120.79299316 -49.3012207 121.77348633 -49.29541016 122.78369141 C-49.17981057 129.65442705 -48.4846518 135.55865742 -46 142 C-45.37931641 143.83884766 -45.37931641 143.83884766 -44.74609375 145.71484375 C-38.23686962 164.6329185 -27.14738729 180.14912137 -13.38085938 194.55175781 C-12.05974143 195.93734332 -10.75598229 197.33941785 -9.453125 198.7421875 C14.56186674 223.84876977 48.14441834 241.70433432 81.80371094 249.48242188 C84.03545227 250.00835469 86.25498292 250.5734541 88.4765625 251.140625 C114.26535805 257.45998737 143.98919247 255.51307317 167.0625 241.5625 C182.08454133 231.24885968 190.35277333 215.66262825 193.75 198 C194.86853975 191.81596657 195.43698823 185.66226041 195.69140625 179.37890625 C195.79324219 178.59386719 195.89507813 177.80882812 196 177 C196.66 176.67 197.32 176.34 198 176 C198.45992316 177.81209723 198.91784036 179.62470361 199.375 181.4375 C199.75785156 182.95150391 199.75785156 182.95150391 200.1484375 184.49609375 C200.56996094 186.23052734 200.56996094 186.23052734 201 188 C201.263573 189.04269043 201.263573 189.04269043 201.5324707 190.10644531 C206.01833253 208.72913986 202.61068293 228.60961588 192.9453125 245.07421875 C175.86150746 270.76853597 147.28729538 285.1496231 117.72485352 291.4284668 C109.07357855 293.16579037 100.64810181 294.15487915 91.83984375 294.203125 C90.9811821 294.21022995 90.12252045 294.2173349 89.23783875 294.22465515 C52.64037626 294.4584619 52.64037626 294.4584619 36 291 C34.94876953 290.7848877 33.89753906 290.56977539 32.81445312 290.34814453 C-17.76618493 279.62487455 -67.53078144 253.95979671 -105.34765625 218.46484375 C-107.45711064 216.50451132 -109.58945942 214.63945317 -111.8125 212.8125 C-114.93499311 210.17271114 -117.55809265 207.22484969 -120.19921875 204.109375 C-121.38377319 202.7218275 -122.59446336 201.35610365 -123.83203125 200.015625 C-153.04994894 168.35792192 -172.24247448 124.61722311 -171.3125 81.29296875 C-170.74419648 68.30486537 -167.16964436 56.42698542 -161 45 C-160.30583984 43.67935547 -160.30583984 43.67935547 -159.59765625 42.33203125 C-147.1114616 20.02290231 -122.79493826 6.30662728 -98.828125 -0.54296875 C-93.91855386 -1.85783305 -88.97581524 -2.96797089 -84 -4 C-82.87078125 -4.24621094 -81.7415625 -4.49242187 -80.578125 -4.74609375 C-54.35392301 -9.47558292 -25.79138771 -5.59319309 0 0 Z " fill="#CEB53D" transform="translate(432,907)"/>
<path d="M0 0 C16.67739735 13.8586823 27.62771036 32.55453035 30 54.3125 C31.01102026 78.27132893 25.11551773 98.10269303 9.4765625 116.64453125 C-4.2189244 131.39850216 -24.40164406 141.79871245 -44.76171875 142.61328125 C-46.40353503 142.63275204 -48.04560674 142.63623925 -49.6875 142.625 C-50.56035645 142.61936035 -51.43321289 142.6137207 -52.33251953 142.60791016 C-74.37599749 142.19857181 -93.48630086 132.58387671 -108.81713867 117.03662109 C-122.84122756 102.08856457 -129.61316839 82.30658344 -129.5 62.0625 C-129.49500488 60.88099365 -129.49000977 59.6994873 -129.48486328 58.48217773 C-129.29438208 48.89309141 -127.86563541 41.10173419 -124 32.3125 C-123.53078125 31.219375 -123.0615625 30.12625 -122.578125 29 C-119.50810198 22.39779996 -115.70060987 16.84507621 -111 11.3125 C-110.47921875 10.64734375 -109.9584375 9.9821875 -109.421875 9.296875 C-98.64195311 -3.99487335 -81.59317264 -13.28810132 -64.8046875 -16.29296875 C-41.07342018 -18.75380859 -19.21003891 -14.59367297 0 0 Z " fill="#462F8A" transform="translate(1435,1024.6875)"/>
<path d="M0 0 C8.58 0 17.16 0 26 0 C26 67.65 26 135.3 26 205 C14.7437645 206.12562355 14.7437645 206.12562355 10.91186523 206.14526367 C10.04653671 206.15164352 9.18120819 206.15802338 8.28965759 206.16459656 C6.93778099 206.16626579 6.93778099 206.16626579 5.55859375 206.16796875 C4.59204361 206.17129715 3.62549347 206.17462555 2.62965393 206.17805481 C0.59514842 206.18308531 -1.43936523 206.18546434 -3.47387695 206.18530273 C-6.53025502 206.18747706 -9.58626424 206.20564136 -12.64257812 206.22460938 C-37.53914605 206.2971006 -61.10597179 204.12970668 -80 186 C-93.31566092 170.9821753 -100.14787228 152.07889012 -99.30859375 132.08984375 C-98.30057906 116.76156344 -92.35919612 101.52642948 -82 90 C-81.30648437 89.20335937 -80.61296875 88.40671875 -79.8984375 87.5859375 C-67.15088026 73.84182856 -50.28413378 67.4378845 -32 65 C-21.44 65 -10.88 65 0 65 C0 43.55 0 22.1 0 0 Z " fill="#47308B" transform="translate(764,951)"/>
<path d="M0 0 C9.55424352 -0.11351231 19.10803029 -0.20500803 28.66279888 -0.25906086 C33.1007333 -0.28501952 37.53817762 -0.32016199 41.97583008 -0.37719727 C46.26824996 -0.43201298 50.56020211 -0.46152344 54.85294533 -0.47438622 C56.48064334 -0.48353814 58.10831931 -0.50140674 59.73581505 -0.52865028 C74.92834009 -0.77256858 87.43414869 2.42499265 99 13 C108.73972444 23.80551921 112.16928662 35.52351444 112.11352539 49.74731445 C112.11367142 50.72340164 112.11381744 51.69948883 112.1139679 52.70515442 C112.11327242 55.9245528 112.1054971 59.143893 112.09765625 62.36328125 C112.09579077 64.59815947 112.09436748 66.8330381 112.09336853 69.06791687 C112.08955357 74.94513074 112.07973198 80.82231983 112.06866455 86.69952393 C112.05842849 92.69876775 112.0538662 98.69801558 112.04882812 104.69726562 C112.03810882 116.46485463 112.02104463 128.23242525 112 140 C101.35089353 140.06971393 90.70184195 140.12291956 80.05255318 140.15543652 C75.10689317 140.17104824 70.16139005 140.19220392 65.21582031 140.22631836 C60.43715766 140.25907271 55.6586453 140.27688676 50.879879 140.28463173 C49.06274935 140.2901465 47.2456273 140.30091509 45.42856216 140.31719017 C29.04972408 140.45796956 16.24176246 138.1763419 3.65234375 126.7421875 C-8.23377159 114.2097822 -11.61919942 99.79281735 -11.33984375 83.10546875 C-10.86401024 72.4021763 -6.23108747 63.717211 1 56 C1.57234375 55.38640625 2.1446875 54.7728125 2.734375 54.140625 C19.39368208 38.05086688 42.23529312 37.66979255 63.875 37.875 C65.7382764 37.88505773 67.6015581 37.89417861 69.46484375 37.90234375 C73.97669629 37.92411786 78.48828764 37.95849097 83 38 C79.64434151 31.00552398 79.64434151 31.00552398 73.3074646 26.91055298 C69.70386751 25.91847401 66.62823295 25.72160541 62.89306641 25.68115234 C62.20944031 25.67110672 61.52581421 25.6610611 60.82147217 25.65071106 C58.58151015 25.62003591 56.34166678 25.60288815 54.1015625 25.5859375 C52.54071035 25.56721319 50.97986819 25.54763884 49.41903687 25.5272522 C45.32564193 25.47605826 41.23221423 25.43636468 37.13867188 25.39910889 C32.95564756 25.35898907 28.77275807 25.30793323 24.58984375 25.2578125 C16.39331475 25.1612041 8.19672948 25.07776303 0 25 C0 16.75 0 8.5 0 0 Z " fill="#472F8A" transform="translate(1053,1017)"/>
<path d="M0 0 C9.45840899 -0.09071476 18.91652452 -0.16395319 28.3752718 -0.20724869 C32.76833191 -0.2280384 37.1610765 -0.25619641 41.55395508 -0.30175781 C45.80096178 -0.34552581 50.04766682 -0.36920174 54.29488182 -0.37950897 C55.90745981 -0.38684525 57.52002309 -0.40116992 59.13247108 -0.42292023 C74.32641202 -0.61954139 87.460311 2.6112614 98.8125 13.375 C104.80731577 19.82119013 107.94206449 26.47625359 110 35 C110.17458237 35.67334885 110.34916473 36.34669769 110.52903748 37.04045105 C111.20394345 41.28158952 111.13033465 45.45954151 111.11352539 49.74731445 C111.11367142 50.72340164 111.11381744 51.69948883 111.1139679 52.70515442 C111.11327242 55.9245528 111.1054971 59.143893 111.09765625 62.36328125 C111.09579077 64.59815947 111.09436748 66.8330381 111.09336853 69.06791687 C111.08955357 74.94513074 111.07973198 80.82231983 111.06866455 86.69952393 C111.05842849 92.69876775 111.0538662 98.69801558 111.04882812 104.69726562 C111.03810882 116.46485463 111.02104463 128.23242525 111 140 C100.23781275 140.09299699 89.47572232 140.1639151 78.71321392 140.20724869 C73.71483272 140.2280548 68.71672799 140.25624395 63.71850586 140.30175781 C58.88795597 140.34546571 54.05767074 140.36918948 49.22693825 140.37950897 C47.39107922 140.38685581 45.5552334 140.40120167 43.71948814 140.42292023 C26.96742646 140.61309131 15.12541962 137.60091579 2.4375 126.0625 C-5.5933016 117.70764851 -11.28946416 106.63116277 -12 95 C-12.07992187 93.73027344 -12.15984375 92.46054688 -12.2421875 91.15234375 C-12.83371063 76.94567706 -8.50646688 65.508326 0.9609375 54.77734375 C13.52503574 42.65695902 29.33285364 38.96137482 46.18359375 38.68359375 C47.23909927 38.66281265 48.2946048 38.64203156 49.38209534 38.62062073 C52.7338345 38.55555152 56.085648 38.49643948 59.4375 38.4375 C61.71810646 38.39427419 63.99870557 38.35065864 66.27929688 38.30664062 C71.85278738 38.19991416 77.42635083 38.09807078 83 38 C80.32681917 32.46557538 77.67052361 28.84407032 71.8142395 26.64929199 C65.64217377 25.22529348 59.32641844 25.39416094 53.02734375 25.390625 C51.49319228 25.375621 49.95905683 25.35888923 48.42494202 25.34051514 C44.41536663 25.29707781 40.40600904 25.2768955 36.39624023 25.26177979 C32.29332729 25.24212279 28.19064667 25.20016287 24.08789062 25.16015625 C16.05862648 25.08511025 8.02953092 25.03672959 0 25 C0 16.75 0 8.5 0 0 Z " fill="#462F8A" transform="translate(825,1017)"/>
<path d="M0 0 C0.80953125 0.25652344 1.6190625 0.51304687 2.453125 0.77734375 C15.76986016 5.53623837 25.58253748 15.88642775 31.8515625 28.3046875 C34.74225709 35.08897072 35.28361897 40.85258164 35.22705078 48.15795898 C35.22734283 49.15384537 35.22763489 50.14973175 35.22793579 51.17579651 C35.22654864 54.44931927 35.21101629 57.72261102 35.1953125 60.99609375 C35.19158019 63.27295304 35.18873425 65.54981394 35.18673706 67.82667542 C35.1791178 73.80582143 35.15948392 79.78486958 35.1373291 85.76397705 C35.1168339 91.87063269 35.10772749 97.97730422 35.09765625 104.08398438 C35.07623645 116.0560394 35.04106817 128.02799623 35 140 C26.42 140 17.84 140 9 140 C8.9906543 137.21006592 8.98130859 134.42013184 8.97167969 131.5456543 C8.93781725 122.29753668 8.88221685 113.04964003 8.81609726 103.80169964 C8.77669411 98.19811062 8.74447047 92.59467706 8.72900391 86.9909668 C8.71379022 81.57669109 8.67926098 76.16284299 8.63169098 70.74875832 C8.61692572 68.68969261 8.60896179 66.63056584 8.60811615 64.57144737 C8.80694664 47.09418972 8.80694664 47.09418972 1.625 31.5 C-4.42363206 25.73939804 -10.22991609 25.34935785 -18.29296875 25.5234375 C-25.28648056 26.42249803 -29.67288509 30.00533922 -33.9375 35.4375 C-38.13956597 41.44690617 -38.30101108 48.37377142 -38.31884766 55.42358398 C-38.32889328 56.3414418 -38.3389389 57.25929962 -38.34928894 58.20497131 C-38.38001528 61.21867281 -38.39712671 64.2322859 -38.4140625 67.24609375 C-38.43278263 69.34360001 -38.45235667 71.4410988 -38.4727478 73.53858948 C-38.52398565 79.04417513 -38.56365607 84.54978517 -38.60089111 90.05548096 C-38.64098311 95.6796264 -38.69205174 101.30367109 -38.7421875 106.92773438 C-38.83884803 117.95175904 -38.92226929 128.97582559 -39 140 C-47.25 140 -55.5 140 -64 140 C-64.0093457 137.19959229 -64.01869141 134.39918457 -64.02832031 131.51391602 C-64.06214893 122.24183629 -64.11773073 112.96997776 -64.18390274 103.69807529 C-64.22334338 98.0787346 -64.25554874 92.45954982 -64.27099609 86.84008789 C-64.28618495 81.41285321 -64.3206706 75.98604726 -64.36830902 70.55900383 C-64.38309975 68.49270297 -64.39103968 66.42634089 -64.39188385 64.35998726 C-64.39426218 61.45640955 -64.42141176 58.55400837 -64.45410156 55.65063477 C-64.4490712 54.80402283 -64.44404083 53.95741089 -64.43885803 53.08514404 C-64.58348757 44.73447654 -67.59549255 37.62034914 -73.32421875 31.5078125 C-79.18076371 26.2382872 -85.07716515 25.22142935 -92.875 25.4921875 C-98.70903436 26.44021808 -102.02431222 29.40121069 -105.5234375 34.00390625 C-106.81260921 35.96747126 -107.95457162 37.89698709 -109 40 C-109.3442099 40.67524216 -109.6884198 41.35048431 -110.0430603 42.04618835 C-111.37362928 46.15329161 -111.30819382 49.9958789 -111.31884766 54.28833008 C-111.32889328 55.21564941 -111.3389389 56.14296875 -111.34928894 57.09838867 C-111.38011452 60.15543005 -111.39715446 63.21238386 -111.4140625 66.26953125 C-111.43277463 68.39231621 -111.45234808 70.51509374 -111.4727478 72.63786316 C-111.5240701 78.21910214 -111.56369542 83.80036524 -111.60089111 89.38171387 C-111.64093005 95.07940639 -111.69202293 100.77699859 -111.7421875 106.47460938 C-111.83894807 117.64967611 -111.92233075 128.82478425 -112 140 C-120.91 140 -129.82 140 -139 140 C-139.0679721 127.8207934 -139.12292912 115.64171429 -139.15543652 103.46236038 C-139.17104409 97.80605226 -139.19219221 92.14988146 -139.22631836 86.49365234 C-139.25908744 81.02769382 -139.27688987 75.5618668 -139.28463173 70.09581757 C-139.29014387 68.0179818 -139.30090715 65.94015263 -139.31719017 63.86237335 C-139.46779471 43.83496839 -136.96469853 27.33488901 -122.4375 12.21875 C-111.98184079 2.70141918 -99.60916419 -1.85324631 -85.48046875 -1.3828125 C-72.47609971 0.04752214 -61.28879741 6.22624196 -51 14 C-50.608125 13.5875 -50.21625 13.175 -49.8125 12.75 C-36.46768515 -0.13464882 -17.9362551 -5.72781869 0 0 Z " fill="#462F8A" transform="translate(1807,1016)"/>
<path d="M0 0 C11.0155781 6.87929384 18.81211283 16.20565053 22.32493591 28.88822937 C22.95243537 33.20517421 22.8800973 37.47867379 22.86352539 41.83520508 C22.86367142 42.84055298 22.86381744 43.84590088 22.8639679 44.88171387 C22.86327228 48.19850842 22.85549625 51.51524653 22.84765625 54.83203125 C22.84579083 57.13417022 22.84436751 59.43630959 22.84336853 61.7384491 C22.83955316 67.7932139 22.8297312 73.84795465 22.81866455 79.90270996 C22.80842939 86.08292312 22.8038664 92.26314018 22.79882812 98.44335938 C22.78810808 110.56641851 22.77051918 122.68945349 22.75 134.8125 C14.5 134.8125 6.25 134.8125 -2.25 134.8125 C-2.27187378 130.81721191 -2.27187378 130.81721191 -2.29418945 126.74121094 C-2.3447073 117.90423202 -2.41133205 109.06742614 -2.48571491 100.23061752 C-2.53028983 94.87706786 -2.5695739 89.52359204 -2.59643555 84.16992188 C-2.62259753 78.99559559 -2.66308982 73.82155547 -2.71318626 68.64740753 C-2.72976821 66.6812727 -2.74133613 64.71508847 -2.74761391 62.74889374 C-2.40358832 42.44317311 -2.40358832 42.44317311 -11.25 24.8125 C-16.6430344 20.20485896 -23.06879544 20.15133162 -29.90234375 20.36328125 C-36.28991503 21.22042325 -39.62791963 24.19041963 -44.0625 28.625 C-48.71507374 35.40446459 -49.69574311 41.43329939 -49.68237305 49.44140625 C-49.6925647 50.36916367 -49.70275635 51.29692108 -49.71325684 52.25279236 C-49.74324759 55.29359078 -49.75263149 58.33407346 -49.76171875 61.375 C-49.77857574 63.49350012 -49.79672735 65.61199029 -49.81611633 67.73046875 C-49.86351146 73.28701674 -49.89338871 78.84352442 -49.91955566 84.40020752 C-49.9494141 90.07808389 -49.99592629 95.75582152 -50.04101562 101.43359375 C-50.12692959 112.55983901 -50.19278739 123.6860701 -50.25 134.8125 C-58.83 134.8125 -67.41 134.8125 -76.25 134.8125 C-76.25410889 131.95674316 -76.25821777 129.10098633 -76.26245117 126.15869141 C-76.27968664 116.69901103 -76.32425188 107.23959947 -76.38209057 97.78008461 C-76.416309 92.04751021 -76.4414626 86.31520087 -76.44555664 80.58251953 C-76.44985053 75.04500001 -76.47840439 69.50807791 -76.52343178 63.97074509 C-76.53637182 61.86340191 -76.54072692 59.75598711 -76.53615379 57.64860916 C-76.12837244 40.98529025 -76.12837244 40.98529025 -84.06364441 26.90615845 C-90.13880773 21.16494029 -95.96677403 20.34712574 -104.15625 20.50390625 C-108.2642217 20.91366605 -110.26226526 21.97050842 -113.25 24.8125 C-113.75917969 25.286875 -114.26835938 25.76125 -114.79296875 26.25 C-124.92951287 36.66185766 -123.85370918 50.51761206 -123.859375 64.01171875 C-123.87437571 66.05867306 -123.89110679 68.10561534 -123.90948486 70.15254211 C-123.95295822 75.50687249 -123.97311295 80.86103963 -123.98822021 86.21551514 C-124.00786375 91.69260225 -124.04982543 97.16951494 -124.08984375 102.64648438 C-124.16492908 113.36846506 -124.21328562 124.09031921 -124.25 134.8125 C-132.83 134.8125 -141.41 134.8125 -150.25 134.8125 C-150.34070401 122.53745596 -150.41394765 110.2626379 -150.45724869 97.9873333 C-150.47804072 92.28618703 -150.50620393 86.58528379 -150.55175781 80.88427734 C-150.5955161 75.37291226 -150.6192 69.86177958 -150.62950897 64.35025406 C-150.63684685 62.25730867 -150.65117458 60.16437466 -150.67292023 58.07152939 C-150.87521118 37.77841208 -147.94361367 22.37169819 -133.6015625 7.0703125 C-123.87854017 -2.26508103 -112.05953297 -6.55779528 -98.74609375 -6.39453125 C-86.74559352 -5.6838871 -73.71241989 -0.87811997 -65.25 7.8125 C-62.47156689 7.96268557 -60.93736516 7.38345654 -58.796875 5.60546875 C-58.26578125 5.11691406 -57.7346875 4.62835937 -57.1875 4.125 C-40.69524183 -10.88440162 -18.59973372 -10.09834028 0 0 Z " fill="#462F8A" transform="translate(1626.25,1021.1875)"/>
<path d="M0 0 C0.87470947 -0.01417969 1.74941895 -0.02835938 2.65063477 -0.04296875 C15.73706144 0.0552132 29.22791737 5.62047109 38.82421875 14.59765625 C49.22247625 26.05336367 55.83608306 39.22366058 55.6875 54.8125 C55.69910156 56.02389648 55.69910156 56.02389648 55.7109375 57.25976562 C55.66713838 70.84844221 50.4494465 83.2925199 41.4375 93.375 C40.89222656 94.00148438 40.34695313 94.62796875 39.78515625 95.2734375 C30.64779711 105.1202857 17.81303208 111.05172904 4.49609375 111.6484375 C-13.16118548 112.09853423 -26.9507463 108.53658455 -40.3125 96.125 C-46.92035726 89.04175732 -51.52645258 80.5263088 -54.5625 71.375 C-54.91957031 70.29992188 -55.27664063 69.22484375 -55.64453125 68.1171875 C-59.11949986 53.95114527 -56.24960627 39.8615606 -49.4375 27.1875 C-41.69219577 14.75898856 -30.33678738 6.09707823 -16.5 1.375 C-11.05951085 0.12822124 -5.55853618 0.06986377 0 0 Z " fill="#FEFDFE" transform="translate(1385.5625,1031.625)"/>
<path d="M0 0 C1.22088821 0.00007553 2.44177643 0.00015106 3.69966125 0.00022888 C5.00815536 0.00539017 6.31664948 0.01055145 7.66479492 0.01586914 C9.02528328 0.01773578 10.38577232 0.01915852 11.7462616 0.02015686 C15.31531655 0.02396264 18.88433037 0.03377625 22.45336914 0.04486084 C26.10001062 0.05511677 29.74665878 0.05966342 33.39331055 0.06469727 C40.53981329 0.07540036 47.68628146 0.09298135 54.83276367 0.11352539 C54.83276367 8.36352539 54.83276367 16.61352539 54.83276367 25.11352539 C50.78510742 25.13930664 46.73745117 25.16508789 42.56713867 25.19165039 C39.30729732 25.22340209 36.04754973 25.25905649 32.78778076 25.2973175 C29.36460523 25.33644023 25.94168105 25.36894101 22.51831055 25.38452148 C18.57592801 25.40278622 14.63423438 25.45283746 10.69213867 25.50415039 C9.4853949 25.50537903 8.27865112 25.50660767 7.03533936 25.50787354 C-7.309576 25.75165766 -20.89366641 30.83995547 -31.16723633 41.11352539 C-40.13628347 52.84674007 -42.43211888 64.63924433 -41.16723633 79.11352539 C-39.10098305 89.62927867 -34.01622454 98.58419109 -25.35473633 104.98852539 C-12.72726857 113.07086545 0.74886114 114.36863724 15.47729492 114.52758789 C17.18099495 114.55663712 17.18099495 114.55663712 18.91911316 114.58627319 C22.49442381 114.64534886 26.06976795 114.69216251 29.64526367 114.73852539 C32.09124011 114.77677163 34.53720404 114.81582705 36.9831543 114.85571289 C42.93295349 114.95249038 48.88264335 115.0326293 54.83276367 115.11352539 C54.83276367 123.36352539 54.83276367 131.61352539 54.83276367 140.11352539 C47.04259865 140.2047328 39.25273769 140.27775518 31.46218204 140.32077408 C27.84274659 140.34144511 24.22370249 140.36937487 20.60449219 140.4152832 C-16.85798815 140.87750493 -16.85798815 140.87750493 -32.47973633 132.55102539 C-33.12942383 132.21369385 -33.77911133 131.8763623 -34.44848633 131.52880859 C-51.94212427 121.96358637 -61.53207793 106.00317806 -67.30786133 87.44946289 C-70.47432311 74.11521209 -70.05028604 56.59324919 -64.16723633 44.11352539 C-63.6696582 43.03458008 -63.17208008 41.95563477 -62.65942383 40.84399414 C-53.69358849 22.93317424 -39.62409694 10.54431426 -20.69848633 3.89477539 C-13.71662862 1.69328872 -7.34931398 -0.01521597 0 0 Z " fill="#462F8A" transform="translate(1247.167236328125,1016.886474609375)"/>
<path d="M0 0 C8.58 0 17.16 0 26 0 C26 21.45 26 42.9 26 65 C40.52 65 55.04 65 70 65 C70 73.58 70 82.16 70 91 C55.48 91 40.96 91 26 91 C26.0619088 103.88400249 26.0619088 103.88400249 26.16015625 116.76757812 C26.20832923 122.02970605 26.25243431 127.29162851 26.27099609 132.55395508 C26.28624742 136.80119176 26.32084088 141.0478874 26.36830902 145.29488182 C26.38303609 146.90736347 26.39103598 148.51992241 26.39188385 150.13247108 C26.35411595 163.56242296 26.35411595 163.56242296 31 176 C35.27150314 180.07689992 38.79512111 180.51672194 44.5859375 180.609375 C45.28772125 180.62591125 45.989505 180.64244751 46.71255493 180.65948486 C48.93346122 180.7077069 51.15368428 180.72927607 53.375 180.75 C54.88935682 180.77818161 56.40368216 180.8081121 57.91796875 180.83984375 C61.61228546 180.91672438 65.30449283 180.95747403 69 181 C69 188.92 69 196.84 69 205 C64.23462113 205.06947367 59.47105128 205.12901801 54.70556641 205.16479492 C53.08994542 205.17973355 51.4743639 205.20009201 49.85888672 205.22631836 C35.15448022 205.45878108 22.27526447 204.72316539 11.03125 194.1484375 C-0.66800502 181.70558576 -0.30603997 165.41809161 -0.22705078 149.28588867 C-0.22648529 147.64852404 -0.22680592 146.0111589 -0.22793579 144.37379456 C-0.22850492 139.96970066 -0.21682257 135.56571777 -0.20278788 131.16164947 C-0.19020649 126.54391415 -0.18910422 121.92617572 -0.18673706 117.3084259 C-0.18054392 108.5823402 -0.16416268 99.85630517 -0.14403808 91.13024169 C-0.12161132 81.18817762 -0.11066867 71.24611102 -0.10064721 61.30402792 C-0.07979433 40.869323 -0.04425358 20.43466649 0 0 Z " fill="#452E89" transform="translate(957,952)"/>
<path d="M0 0 C0 29.37 0 58.74 0 89 C-46.45362903 89 -46.45362903 89 -61.3125 75.25 C-69.48880084 66.54619588 -72.97212696 54.83643796 -73.4375 43.0625 C-73.05779445 30.94356445 -68.35613776 19.07409044 -59.53515625 10.64453125 C-41.51635496 -4.2311408 -24.82193731 0 0 0 Z " fill="#FEFDFE" transform="translate(764,1043)"/>
<path d="M0 0 C0.99422974 0.00012085 1.98845947 0.0002417 3.01281738 0.00036621 C4.0452356 0.00548218 5.07765381 0.01059814 6.14135742 0.01586914 C7.57868225 0.01737976 7.57868225 0.01737976 9.04504395 0.0189209 C12.61231692 0.02413889 16.17957279 0.03810015 19.74682617 0.05102539 C27.72870117 0.07165039 35.71057617 0.09227539 43.93432617 0.11352539 C43.93432617 16.61352539 43.93432617 33.11352539 43.93432617 50.11352539 C36.55047593 50.20559973 29.16863591 50.28516985 21.78466797 50.33325195 C19.27548453 50.35330601 16.76634748 50.38055624 14.25732422 50.4152832 C10.64042684 50.46407293 7.02415007 50.48655721 3.40698242 50.50415039 C1.73769432 50.5351181 1.73769432 50.5351181 0.03468323 50.56671143 C-8.25057917 50.56907198 -13.89977918 48.70563761 -20.87817383 44.36352539 C-25.97771889 39.11827904 -27.33086577 34.42878586 -27.50317383 27.11352539 C-27.25988774 19.26964625 -25.88112657 12.77986396 -20.06567383 7.11352539 C-13.43692134 2.50710417 -8.14349525 -0.02104262 0 0 Z " fill="#FDFCFD" transform="translate(866.065673828125,1081.886474609375)"/>
<path d="M0 0 C0.97384644 0.00402832 1.94769287 0.00805664 2.9510498 0.01220703 C6.54959256 0.0329568 10.14786435 0.08880077 13.74609375 0.140625 C25.84265625 0.264375 25.84265625 0.264375 38.18359375 0.390625 C38.18359375 16.890625 38.18359375 33.390625 38.18359375 50.390625 C30.94242762 50.45968593 23.70241531 50.51936518 16.46118164 50.55541992 C14.00053016 50.5704584 11.53990526 50.59089442 9.0793457 50.61694336 C5.53199683 50.65354356 1.98500398 50.67040135 -1.5625 50.68359375 C-2.65348495 50.69907761 -3.74446991 50.71456146 -4.86851501 50.73051453 C-12.59075842 50.73219639 -19.44670016 50.08638987 -25.62890625 45.140625 C-31.13535763 38.21822898 -33.26220299 32.15748678 -33.15625 23.33984375 C-32.40987858 16.86271247 -29.3153342 11.43246008 -24.56640625 7.015625 C-16.67152333 1.19172396 -9.70637285 -0.19218293 0 0 Z " fill="#FDFDFE" transform="translate(1099.81640625,1081.609375)"/>
<path d="M0 0 C7.49015064 11.23522595 7.69247925 30.08690727 5.48046875 43.04296875 C5.32191406 43.68878906 5.16335938 44.33460937 5 45 C4.67 45 4.34 45 4 45 C3.97494385 44.22285645 3.9498877 43.44571289 3.92407227 42.64501953 C3.80833204 39.13816931 3.68550648 35.63160255 3.5625 32.125 C3.52318359 30.90167969 3.48386719 29.67835937 3.44335938 28.41796875 C3.38051758 26.66806641 3.38051758 26.66806641 3.31640625 24.8828125 C3.27974854 23.80402832 3.24309082 22.72524414 3.20532227 21.61376953 C3.16623357 19.01930464 3.16623357 19.01930464 2 17 C1.93049459 15.45976004 1.91547643 13.91665012 1.9375 12.375 C1.95103516 11.14910156 1.95103516 11.14910156 1.96484375 9.8984375 C1.97644531 9.27195312 1.98804688 8.64546875 2 8 C1.34 8 0.68 8 0 8 C0.04125 9.155 0.0825 10.31 0.125 11.5 C0.14087433 15.94481301 -0.78206895 19.73724131 -2 24 C-2.91172664 20.98221054 -3.03154002 18.61493501 -2.6953125 15.48828125 C-2.60636719 14.64845703 -2.51742187 13.80863281 -2.42578125 12.94335938 C-2.32652344 12.07517578 -2.22726562 11.20699219 -2.125 10.3125 C-2.03347656 9.43271484 -1.94195313 8.55292969 -1.84765625 7.64648438 C-1.13472673 1.13472673 -1.13472673 1.13472673 0 0 Z " fill="#D2BF6B" transform="translate(629,1083)"/>
<path d="M0 0 C0 3 0 3 -2.625 5.91796875 C-3.74249406 7.01550756 -4.86785643 8.10507895 -6 9.1875 C-6.57234375 9.74630859 -7.1446875 10.30511719 -7.734375 10.88085938 C-9.14962788 12.26073093 -10.57397155 13.63126734 -12 15 C-12.66 14.67 -13.32 14.34 -14 14 C-12.23304141 12.03804598 -10.46168211 10.08040373 -8.6875 8.125 C-8.18798828 7.56941406 -7.68847656 7.01382812 -7.17382812 6.44140625 C-4.8912844 3.93211977 -2.83639832 1.89093222 0 0 Z " fill="#503D88" transform="translate(1499,1023)"/>
<path d="M0 0 C0 3 0 3 -2.40625 5.69921875 C-3.4299968 6.70302243 -4.4616054 7.69885649 -5.5 8.6875 C-6.02464844 9.19861328 -6.54929687 9.70972656 -7.08984375 10.23632812 C-8.38660904 11.49772708 -9.69246117 12.74977212 -11 14 C-11.66 13.67 -12.32 13.34 -13 13 C-8.96476648 8.18876004 -4.95532767 3.86757281 0 0 Z " fill="#534189" transform="translate(1205,1032)"/>
<path d="M0 0 C0 3 0 3 -1.53125 4.82421875 C-2.1809375 5.43910156 -2.830625 6.05398438 -3.5 6.6875 C-4.1496875 7.31011719 -4.799375 7.93273438 -5.46875 8.57421875 C-5.9740625 9.04472656 -6.479375 9.51523438 -7 10 C-7.99 9.67 -8.98 9.34 -10 9 C-8.71142987 7.68445979 -7.41904109 6.37265903 -6.125 5.0625 C-5.04605469 3.96615234 -5.04605469 3.96615234 -3.9453125 2.84765625 C-2 1 -2 1 0 0 Z " fill="#523F8A" transform="translate(1061,1067)"/>
<path d="M0 0 C0.66 0.33 1.32 0.66 2 1 C-0.97 3.97 -3.94 6.94 -7 10 C-7.66 9.67 -8.32 9.34 -9 9 C-7.87895467 7.68412059 -6.75303035 6.37239647 -5.625 5.0625 C-4.99851562 4.33160156 -4.37203125 3.60070313 -3.7265625 2.84765625 C-2 1 -2 1 0 0 Z " fill="#513F89" transform="translate(831,1068)"/>
<path d="M0 0 C0.99 0.33 1.98 0.66 3 1 C0.03 3.97 -2.94 6.94 -6 10 C-6.66 9.67 -7.32 9.34 -8 9 C-5.36 6.03 -2.72 3.06 0 0 Z " fill="#54418B" transform="translate(1686,1027)"/>
<path d="M0 0 C-1.28519565 2.86697492 -2.57129254 4.97607712 -5 7 C-5.66 7 -6.32 7 -7 7 C-3.86206897 0 -3.86206897 0 0 0 Z " fill="#59478F" transform="translate(1333,1028)"/>
</svg>
